<svg xmlns="http://www.w3.org/2000/svg" width="22.11" height="21.8" viewBox="0 0 22.11 21.8"><path d="M11.052,7.548a5.59,5.59,0,1,0,5.667,5.589A5.62,5.62,0,0,0,11.052,7.548Zm0,9.223a3.634,3.634,0,1,1,3.685-3.634,3.666,3.666,0,0,1-3.685,3.634ZM18.273,7.32a1.322,1.322,0,1,1-1.322-1.3A1.31,1.31,0,0,1,18.273,7.32Zm3.754,1.323a6.4,6.4,0,0,0-1.786-4.568A6.636,6.636,0,0,0,15.61,2.314c-1.825-.1-7.3-.1-9.12,0A6.627,6.627,0,0,0,1.858,4.07,6.423,6.423,0,0,0,.072,8.638c-.1,1.8-.1,7.195,0,8.994A6.4,6.4,0,0,0,1.858,22.2,6.645,6.645,0,0,0,6.49,23.961c1.825.1,7.3.1,9.12,0A6.593,6.593,0,0,0,20.241,22.2a6.444,6.444,0,0,0,1.786-4.568c.1-1.8.1-7.19,0-8.989ZM19.669,19.564a3.7,3.7,0,0,1-2.1,2.072c-1.455.569-4.908.438-6.516.438s-5.066.126-6.516-.438a3.705,3.705,0,0,1-2.1-2.072c-.577-1.435-.444-4.84-.444-6.426s-.128-5,.444-6.426a3.7,3.7,0,0,1,2.1-2.072C5.991,4.07,9.444,4.2,11.052,4.2s5.066-.126,6.516.438a3.705,3.705,0,0,1,2.1,2.072c.577,1.435.444,4.84.444,6.426S20.246,18.133,19.669,19.564Z" transform="translate(0.005 -2.238)" fill="#fff"/></svg>