<svg xmlns="http://www.w3.org/2000/svg" width="20.5" height="20" viewBox="0 0 20.5 20"><path d="M20.5,2.992a1.309,1.309,0,0,0-.305-.852c-.135-.157-.305-.356-.487-.566a1.852,1.852,0,0,0,.789-1.2A.309.309,0,0,0,20.212,0h-4.27a4.793,4.793,0,0,0-4.556,5H5.695A3.278,3.278,0,0,0,3.132,6.293V6.25A3.3,3.3,0,0,0,0,9.688v2.188a.6.6,0,0,0,.569.625h.569a.6.6,0,0,0,.569-.625V9.688a1.582,1.582,0,0,1,.6-1.237c-.007.1-.028.2-.028.3a3.9,3.9,0,0,0,1.087,2.73l-.915,2.68a2.729,2.729,0,0,0-.077,1.484l.884,3.883A.582.582,0,0,0,3.809,20H6.156a.614.614,0,0,0,.552-.777l-.936-4.112.848-2.484,4.768.872v5.875a.6.6,0,0,0,.569.625h2.278a.6.6,0,0,0,.569-.625V12.43a4.584,4.584,0,0,0,1.139-3.055c0-.009,0-.016,0-.025v-4l.569.278L17.184,7.1a1.1,1.1,0,0,0,1.441.6l1.158-.509A1.255,1.255,0,0,0,20.5,6.028l0-3.036ZM18.22,3.75a.6.6,0,0,1-.569-.625.572.572,0,1,1,1.139,0A.6.6,0,0,1,18.22,3.75Z"/></svg>