<svg xmlns="http://www.w3.org/2000/svg" width="20" height="20" viewBox="0 0 20 20"><path d="M19.375,4.917h-2.5l-.28-.6a1.244,1.244,0,0,0-1.118-.737H13.383L12.317,2.447a.621.621,0,0,0-1.067.471V9.161l5,1.9V9.583H17.5A2.587,2.587,0,0,0,20,6.917V5.583A.647.647,0,0,0,19.375,4.917ZM15,6.917a.668.668,0,1,1,.625-.667A.647.647,0,0,1,15,6.917ZM3.75,10.25A1.3,1.3,0,0,1,2.5,8.917,1.294,1.294,0,0,0,1.25,7.583,1.294,1.294,0,0,0,0,8.917a3.984,3.984,0,0,0,2.5,3.754v8.913a.647.647,0,0,0,.625.667h2.5a.647.647,0,0,0,.625-.667V16.917H12.5v4.667a.647.647,0,0,0,.625.667h2.5a.647.647,0,0,0,.625-.667v-9.1L10.393,10.25Z" transform="translate(0 -2.25)"/></svg>