<svg xmlns="http://www.w3.org/2000/svg" width="20" height="20" viewBox="0 0 20 20"><path d="M11.249,6.533v-1.1A10.581,10.581,0,0,1,9.136.544.622.622,0,0,0,8.05.22,10.534,10.534,0,0,0,6.14,3.6,9.386,9.386,0,0,0,11.249,6.533ZM15.624,2.5A3.128,3.128,0,0,0,12.5,5.631v2.32A10.609,10.609,0,0,1,3.4,1.634.624.624,0,0,0,2.265,1.6a10.545,10.545,0,0,0-1.016,4.52,10.223,10.223,0,0,0,3.324,7.262,15.958,15.958,0,0,0,1.519,1.281L.472,16.069a.629.629,0,0,0-.371.953C.781,18.073,2.46,19.854,6.085,20a1.256,1.256,0,0,0,.863-.309L9.5,17.5h3a6.245,6.245,0,0,0,6.25-6.246V5L20,2.5Zm0,3.754a.625.625,0,1,1,.625-.625A.627.627,0,0,1,15.624,6.256Z" transform="translate(0.001 -0.003)"/></svg>