<svg xmlns="http://www.w3.org/2000/svg" width="20" height="20" viewBox="0 0 20 20"><path d="M11.351,8.917A7.339,7.339,0,0,0,5,12.5V8.917a3.885,3.885,0,0,0-3.75-4A1.294,1.294,0,0,0,0,6.25,1.294,1.294,0,0,0,1.25,7.583,1.3,1.3,0,0,1,2.5,8.917V19.583A2.59,2.59,0,0,0,5,22.25h6.875a.647.647,0,0,0,.625-.667v-.667a1.294,1.294,0,0,0-1.25-1.333H10l5-4v6a.647.647,0,0,0,.625.667h1.25a.647.647,0,0,0,.625-.667V12.994a4.662,4.662,0,0,1-1.25.189,5.1,5.1,0,0,1-4.9-4.267Zm6.149-4H15L12.5,2.25v5.6a3.881,3.881,0,0,0,3.75,4,3.881,3.881,0,0,0,3.75-4V2.25ZM14.688,8.25a.668.668,0,1,1,.625-.667A.647.647,0,0,1,14.688,8.25Zm3.125,0a.668.668,0,1,1,.625-.667A.647.647,0,0,1,17.813,8.25Z" transform="translate(0 -2.25)"/></svg>