<svg xmlns="http://www.w3.org/2000/svg" width="22.112" height="21.799" viewBox="0 0 22.112 21.799"><defs><style>.a{fill:#df3770;}</style></defs><path class="a" d="M18.8,5.418A10.989,10.989,0,0,0,.094,13.052a10.7,10.7,0,0,0,1.461,5.4L0,24.049l5.809-1.5a11.048,11.048,0,0,0,5.237,1.314h0a10.987,10.987,0,0,0,11.061-10.8A10.771,10.771,0,0,0,18.8,5.418ZM11.051,22.039a9.191,9.191,0,0,1-4.64-1.251l-.331-.195-3.445.89.918-3.314-.217-.341a8.855,8.855,0,0,1-1.392-4.778A9.134,9.134,0,0,1,17.492,6.707a8.953,8.953,0,0,1,2.769,6.35,9.146,9.146,0,0,1-9.21,8.982Zm4.995-6.725c-.271-.136-1.619-.788-1.871-.876s-.434-.136-.617.136-.706.876-.869,1.061-.321.2-.592.068a7.422,7.422,0,0,1-3.726-3.211c-.281-.477.281-.443.8-1.474a.494.494,0,0,0-.025-.472c-.069-.136-.617-1.465-.844-2s-.449-.453-.617-.462-.341-.01-.523-.01a1.021,1.021,0,0,0-.73.336,3.015,3.015,0,0,0-.958,2.253,5.249,5.249,0,0,0,1.115,2.793,12.167,12.167,0,0,0,4.679,4.078,5.423,5.423,0,0,0,3.287.676,2.8,2.8,0,0,0,1.846-1.285,2.228,2.228,0,0,0,.158-1.285C16.5,15.514,16.318,15.446,16.046,15.315Z" transform="translate(0 -2.25)"/></svg>