<svg xmlns="http://www.w3.org/2000/svg" width="25" height="25" viewBox="0 0 25 25"><path d="M24.219,5.583H21.094l-.35-.745a1.555,1.555,0,0,0-1.4-.921H16.729L15.4,2.5a.776.776,0,0,0-1.334.589v7.8l6.25,2.381V11.417h1.563A3.234,3.234,0,0,0,25,8.083V6.417A.808.808,0,0,0,24.219,5.583Zm-5.469,2.5a.835.835,0,1,1,.781-.833A.808.808,0,0,1,18.75,8.083ZM4.687,12.25a1.619,1.619,0,0,1-1.562-1.667A1.617,1.617,0,0,0,1.563,8.917,1.617,1.617,0,0,0,0,10.583a4.98,4.98,0,0,0,3.125,4.693V26.417a.808.808,0,0,0,.781.833H7.031a.808.808,0,0,0,.781-.833V20.583h7.813v5.833a.808.808,0,0,0,.781.833h3.125a.808.808,0,0,0,.781-.833V15.039L12.991,12.25Z" transform="translate(0 -2.25)" fill="#efefef"/></svg>